<svg fill="none" xmlns="http://www.w3.org/2000/svg">
	<path d="M6.66668 8.58333C6.25246 8.58333 5.91668 8.91912 5.91668 9.33333C5.91668 9.74755 6.25246 10.0833 6.66668 10.0833V8.58333ZM9.33334 10.0833C9.74756 10.0833 10.0833 9.74755 10.0833 9.33333C10.0833 8.91912 9.74756 8.58333 9.33334 8.58333V10.0833ZM2.66668 8.08333H13.3333V6.58333H2.66668V8.08333ZM13.9167 8.66667V11.3333H15.4167V8.66667H13.9167ZM12 13.25H4.00001V14.75H12V13.25ZM2.08334 11.3333V8.66667H0.583344V11.3333H2.08334ZM4.00001 13.25C2.94146 13.25 2.08334 12.3919 2.08334 11.3333H0.583344C0.583344 13.2203 2.11304 14.75 4.00001 14.75V13.25ZM13.9167 11.3333C13.9167 12.3919 13.0586 13.25 12 13.25V14.75C13.887 14.75 15.4167 13.2203 15.4167 11.3333H13.9167ZM13.3333 8.08333C13.6555 8.08333 13.9167 8.3445 13.9167 8.66667H15.4167C15.4167 7.51607 14.4839 6.58333 13.3333 6.58333V8.08333ZM2.66668 6.58333C1.51608 6.58333 0.583344 7.51607 0.583344 8.66667H2.08334C2.08334 8.3445 2.34451 8.08333 2.66668 8.08333V6.58333ZM4.00001 5.41667H12V3.91667H4.00001V5.41667ZM12.5833 6V7.33333H14.0833V6H12.5833ZM3.41668 7.33333V6H1.91668V7.33333H3.41668ZM12 5.41667C12.3222 5.41667 12.5833 5.67783 12.5833 6H14.0833C14.0833 4.84941 13.1506 3.91667 12 3.91667V5.41667ZM4.00001 3.91667C2.84942 3.91667 1.91668 4.84941 1.91668 6H3.41668C3.41668 5.67783 3.67784 5.41667 4.00001 5.41667V3.91667ZM5.33334 2.75H10.6667V1.25H5.33334V2.75ZM11.25 3.33333V4.66667H12.75V3.33333H11.25ZM4.75001 4.66667V3.33333H3.25001V4.66667H4.75001ZM10.6667 2.75C10.9888 2.75 11.25 3.01117 11.25 3.33333H12.75C12.75 2.18274 11.8173 1.25 10.6667 1.25V2.75ZM5.33334 1.25C4.18275 1.25 3.25001 2.18274 3.25001 3.33333H4.75001C4.75001 3.01117 5.01118 2.75 5.33334 2.75V1.25ZM6.66668 10.0833H9.33334V8.58333H6.66668V10.0833Z" fill="#494C53" />
</svg>
