<svg viewBox="0 0 18 18" fill="none" xmlns="http://www.w3.org/2000/svg">
	<path d="M7.5 9.75C7.08579 9.75 6.75 10.0858 6.75 10.5C6.75 10.9142 7.08579 11.25 7.5 11.25V9.75ZM10.5 11.25C10.9142 11.25 11.25 10.9142 11.25 10.5C11.25 10.0858 10.9142 9.75 10.5 9.75V11.25ZM3 9H15V7.5H3V9ZM15.75 9.75V12.75H17.25V9.75H15.75ZM13.5 15H4.5V16.5H13.5V15ZM2.25 12.75V9.75H0.75V12.75H2.25ZM4.5 15C3.25736 15 2.25 13.9926 2.25 12.75H0.75C0.75 14.8211 2.42893 16.5 4.5 16.5V15ZM15.75 12.75C15.75 13.9926 14.7426 15 13.5 15V16.5C15.5711 16.5 17.25 14.8211 17.25 12.75H15.75ZM15 9C15.4142 9 15.75 9.33579 15.75 9.75H17.25C17.25 8.50736 16.2426 7.5 15 7.5V9ZM3 7.5C1.75736 7.5 0.75 8.50736 0.75 9.75H2.25C2.25 9.33579 2.58579 9 3 9V7.5ZM4.5 6H13.5V4.5H4.5V6ZM14.25 6.75V8.25H15.75V6.75H14.25ZM3.75 8.25V6.75H2.25V8.25H3.75ZM13.5 6C13.9142 6 14.25 6.33579 14.25 6.75H15.75C15.75 5.50736 14.7426 4.5 13.5 4.5V6ZM4.5 4.5C3.25736 4.5 2.25 5.50736 2.25 6.75H3.75C3.75 6.33579 4.08579 6 4.5 6V4.5ZM6 3H12V1.5H6V3ZM12.75 3.75V5.25H14.25V3.75H12.75ZM5.25 5.25V3.75H3.75V5.25H5.25ZM12 3C12.4142 3 12.75 3.33579 12.75 3.75H14.25C14.25 2.50736 13.2426 1.5 12 1.5V3ZM6 1.5C4.75736 1.5 3.75 2.50736 3.75 3.75H5.25C5.25 3.33579 5.58579 3 6 3V1.5ZM7.5 11.25H10.5V9.75H7.5V11.25Z" fill="#686868" />
</svg>
