<svg width="25" height="25" viewBox="0 0 25 25" fill="none" xmlns="http://www.w3.org/2000/svg">
	<path d="M3.5 14.75C3.08579 14.75 2.75 15.0858 2.75 15.5C2.75 15.9142 3.08579 16.25 3.5 16.25V14.75ZM21.5 16.25C21.9142 16.25 22.25 15.9142 22.25 15.5C22.25 15.0858 21.9142 14.75 21.5 14.75V16.25ZM21.3253 22.5L21.0374 23.1925C21.2538 23.2825 21.4998 23.2661 21.7024 23.1483C21.905 23.0305 22.0408 22.8247 22.0696 22.5921L21.3253 22.5ZM18.2461 20.341L18.8911 19.9584L18.2461 20.341ZM20.2113 22.0369L20.4992 21.3444L20.2113 22.0369ZM20.9436 18.8254L20.2986 19.2081L20.9436 18.8254ZM21.4702 21.3297L22.2145 21.4218L21.4702 21.3297ZM3.67471 22.5L2.9304 22.5921C2.95919 22.8247 3.09504 23.0305 3.29762 23.1483C3.50019 23.2661 3.7462 23.2825 3.9626 23.1925L3.67471 22.5ZM4.05641 18.8254L3.41139 18.4428L4.05641 18.8254ZM3.52982 21.3297L4.27414 21.2375L3.52982 21.3297ZM6.75391 20.341L6.10889 19.9584L6.75391 20.341ZM4.78866 22.0369L4.50077 21.3444H4.50077L4.78866 22.0369ZM13.2501 2.50001C13.2501 2.0858 12.9143 1.75001 12.5001 1.75C12.0859 1.74999 11.7501 2.08578 11.7501 2.49999L13.2501 2.50001ZM3.5 16.25H21.5V14.75H3.5V16.25ZM20.7259 21.2375L20.581 22.4079L22.0696 22.5921L22.2145 21.4218L20.7259 21.2375ZM21.6132 21.8075L20.4992 21.3444L19.9235 22.7295L21.0374 23.1925L21.6132 21.8075ZM17.6011 20.7237C18.1343 21.6226 18.9504 22.325 19.9235 22.7295L20.4992 21.3444C19.8196 21.0619 19.2565 20.5742 18.8911 19.9584L17.6011 20.7237ZM20.2986 19.2081C20.6637 19.8236 20.8128 20.5354 20.7259 21.2375L22.2145 21.4218C22.3425 20.3875 22.1221 19.342 21.5886 18.4428L20.2986 19.2081ZM4.50077 21.3444L3.38683 21.8075L3.9626 23.1925L5.07654 22.7295L4.50077 21.3444ZM4.41903 22.4079L4.27414 21.2375L2.78551 21.4218L2.9304 22.5921L4.41903 22.4079ZM3.41139 18.4428C2.87791 19.342 2.65746 20.3875 2.78551 21.4218L4.27414 21.2375C4.18721 20.5354 4.33632 19.8236 4.70144 19.2081L3.41139 18.4428ZM6.10889 19.9584C5.74355 20.5742 5.18042 21.0619 4.50077 21.3444L5.07654 22.7295C6.04963 22.325 6.86568 21.6226 7.39894 20.7237L6.10889 19.9584ZM10.1352 7.55198C10.1352 6.31122 11.1746 5.27079 12.5 5.27079V3.77079C10.3849 3.77079 8.63523 5.44458 8.63523 7.55198H10.1352ZM12.5 5.27079C13.8255 5.27079 14.8648 6.31122 14.8648 7.55198H16.3648C16.3648 5.44458 14.6151 3.77079 12.5 3.77079V5.27079ZM14.8648 7.55198C14.8648 7.97586 14.7457 8.37156 14.5369 8.71174L15.8153 9.49636C16.1638 8.92855 16.3648 8.26257 16.3648 7.55198H14.8648ZM14.5311 9.48673L20.2986 19.2081L21.5886 18.4428L15.8211 8.72137L14.5311 9.48673ZM10.4632 8.71169C10.2544 8.37153 10.1352 7.97584 10.1352 7.55198H8.63523C8.63523 8.26254 8.83625 8.92849 9.18471 9.49629L10.4632 8.71169ZM4.70144 19.2081L10.469 9.48667L9.17891 8.72131L3.41139 18.4428L4.70144 19.2081ZM14.5369 8.71174C14.1325 9.37059 13.3914 9.8216 12.5333 9.83294L12.5531 11.3328C13.9337 11.3146 15.1461 10.5868 15.8153 9.49636L14.5369 8.71174ZM12.5333 9.83294C12.5222 9.83309 12.5112 9.83316 12.5 9.83316V11.3332C12.5178 11.3332 12.5354 11.333 12.5531 11.3328L12.5333 9.83294ZM11.8982 10.2002L6.10889 19.9584L7.39894 20.7237L13.1882 10.9656L11.8982 10.2002ZM12.5 9.83316C12.4889 9.83316 12.4778 9.83309 12.4667 9.83294L12.4469 11.3328C12.4646 11.333 12.4823 11.3332 12.5 11.3332V9.83316ZM12.4667 9.83294C11.6086 9.82158 10.8675 9.37055 10.4632 8.71169L9.18471 9.49629C9.85393 10.5867 11.0663 11.3145 12.4469 11.3328L12.4667 9.83294ZM18.8911 19.9584L13.1018 10.2002L11.8118 10.9656L17.6011 20.7237L18.8911 19.9584ZM13.25 4.5208L13.2501 2.50001L11.7501 2.49999L11.75 4.52078L13.25 4.5208Z" fill="#494C53" />
</svg>
