<svg width="25" height="25" viewBox="0 0 25 25" fill="none" xmlns="http://www.w3.org/2000/svg">
	<path d="M9.16667 20.2778L9.16667 21.0278H9.16667V20.2778ZM4.72222 11.3889V10.6389V11.3889ZM6.94445 13.6111H7.69445H6.94445ZM9.16667 15.8333V15.0833V15.8333ZM17.8449 4.04675L18.2463 3.41321L17.8449 4.04675ZM21.4605 17.6944C21.8747 17.6944 22.2105 17.3587 22.2105 16.9444C22.2105 16.5302 21.8747 16.1944 21.4605 16.1944V17.6944ZM6.21407 20.2778L5.74229 20.8608L6.21407 20.2778ZM2.56103 11.3889L1.81557 11.3065L2.56103 11.3889ZM21.75 12.5C21.75 17.6086 17.6086 21.75 12.5 21.75V23.25C18.4371 23.25 23.25 18.4371 23.25 12.5H21.75ZM16.1944 14.7222C16.1944 16.3637 17.5252 17.6944 19.1667 17.6944V16.1944C18.3536 16.1944 17.6944 15.5353 17.6944 14.7222H16.1944ZM14.7222 13.25C15.5353 13.25 16.1944 13.9091 16.1944 14.7222H17.6944C17.6944 13.0807 16.3637 11.75 14.7222 11.75V13.25ZM11.75 10.2778C11.75 11.9193 13.0807 13.25 14.7222 13.25V11.75C13.9091 11.75 13.25 11.0909 13.25 10.2778H11.75ZM14.7222 7.30556C13.0807 7.30556 11.75 8.63626 11.75 10.2778H13.25C13.25 9.46469 13.9091 8.80556 14.7222 8.80556V7.30556ZM16.1944 5.83333C16.1944 6.64642 15.5353 7.30556 14.7222 7.30556V8.80556C16.3637 8.80556 17.6944 7.47485 17.6944 5.83333H16.1944ZM7.69445 13.6111C7.69445 11.9696 6.36374 10.6389 4.72222 10.6389V12.1389C5.53531 12.1389 6.19445 12.798 6.19445 13.6111H7.69445ZM9.16667 15.0833C8.35358 15.0833 7.69445 14.4242 7.69445 13.6111H6.19445C6.19445 15.2526 7.52515 16.5833 9.16667 16.5833V15.0833ZM12.1389 18.0556C12.1389 16.414 10.8082 15.0833 9.16667 15.0833V16.5833C9.97975 16.5833 10.6389 17.2425 10.6389 18.0556H12.1389ZM9.16667 21.0278C10.8082 21.0278 12.1389 19.6971 12.1389 18.0556H10.6389C10.6389 18.8686 9.97975 19.5278 9.16667 19.5278V21.0278ZM17.3984 3.44416C16.6694 3.98439 16.1944 4.85347 16.1944 5.83333H17.6944C17.6944 5.34875 17.9278 4.91882 18.2915 4.64933L17.3984 3.44416ZM12.5 3.25C14.3194 3.25 16.014 3.77451 17.4435 4.68028L18.2463 3.41321C16.5838 2.35979 14.612 1.75 12.5 1.75V3.25ZM17.4435 4.68028C20.0334 6.32127 21.75 9.21043 21.75 12.5H23.25C23.25 8.67523 21.252 5.31765 18.2463 3.41321L17.4435 4.68028ZM19.1667 17.6944H21.4605V16.1944H19.1667V17.6944ZM6.21407 21.0278L9.16667 21.0278L9.16667 19.5278L6.21407 19.5278L6.21407 21.0278ZM12.5 21.75C10.2965 21.75 8.27469 20.9804 6.68586 19.6947L5.74229 20.8608C7.5884 22.3547 9.94066 23.25 12.5 23.25V21.75ZM6.68586 19.6947C4.58871 17.9977 3.25 15.4055 3.25 12.5H1.75C1.75 15.8773 3.30832 18.8912 5.74229 20.8608L6.68586 19.6947ZM4.72222 10.6389H2.56103V12.1389H4.72222V10.6389ZM3.25 12.5C3.25 12.152 3.26918 11.8088 3.30649 11.4713L1.81557 11.3065C1.77223 11.6986 1.75 12.0968 1.75 12.5H3.25ZM3.30649 11.4713C3.81767 6.84714 7.73927 3.25 12.5 3.25V1.75C6.96617 1.75 2.40983 5.93075 1.81557 11.3065L3.30649 11.4713Z" fill="#131313" />
</svg>
