<svg fill="none" xmlns="http://www.w3.org/2000/svg">
	<path d="M12.803 8.80304C12.5101 9.09594 12.5101 9.57081 12.803 9.8637C13.0959 10.1566 13.5708 10.1566 13.8637 9.8637L12.803 8.80304ZM13.8637 6.13638C13.5708 5.84348 13.0959 5.84348 12.803 6.13638C12.5101 6.42927 12.5101 6.90414 12.803 7.19704L13.8637 6.13638ZM13.9596 7.29293L13.4292 7.82326L13.9596 7.29293ZM13.8637 9.8637L14.4899 9.23748L13.4292 8.17682L12.803 8.80304L13.8637 9.8637ZM14.4899 6.7626L13.8637 6.13638L12.803 7.19704L13.4292 7.82326L14.4899 6.7626ZM14.4899 9.23748C15.1733 8.55406 15.1733 7.44602 14.4899 6.7626L13.4292 7.82326C13.5269 7.92089 13.5269 8.07919 13.4292 8.17682L14.4899 9.23748Z" />
	<path d="M14 8.74996C14.4142 8.74996 14.75 8.41417 14.75 7.99996C14.75 7.58575 14.4142 7.24996 14 7.24996V8.74996ZM8.66668 7.24996C8.25246 7.24996 7.91668 7.58575 7.91668 7.99996C7.91668 8.41417 8.25246 8.74996 8.66668 8.74996V7.24996ZM12.75 10.6666C12.75 10.2524 12.4142 9.91663 12 9.91663C11.5858 9.91663 11.25 10.2524 11.25 10.6666H12.75ZM11.25 5.33329C11.25 5.74751 11.5858 6.08329 12 6.08329C12.4142 6.08329 12.75 5.74751 12.75 5.33329H11.25ZM14 7.24996H8.66668V8.74996H14V7.24996ZM5.91668 5.33329V10.6666H7.41668V5.33329H5.91668ZM2.08334 10.6666V5.33329H0.583344V10.6666H2.08334ZM4.00001 12.5833C2.94146 12.5833 2.08334 11.7252 2.08334 10.6666H0.583344C0.583344 12.5536 2.11304 14.0833 4.00001 14.0833V12.5833ZM5.91668 10.6666C5.91668 11.7252 5.05856 12.5833 4.00001 12.5833V14.0833C5.88698 14.0833 7.41668 12.5536 7.41668 10.6666H5.91668ZM4.00001 3.41663C5.05856 3.41663 5.91668 4.27475 5.91668 5.33329H7.41668C7.41668 3.44632 5.88698 1.91663 4.00001 1.91663V3.41663ZM4.00001 1.91663C2.11304 1.91663 0.583344 3.44632 0.583344 5.33329H2.08334C2.08334 4.27475 2.94146 3.41663 4.00001 3.41663V1.91663ZM4.00001 3.41663H9.33334V1.91663H4.00001V3.41663ZM9.33334 12.5833H4.00001V14.0833H9.33334V12.5833ZM11.25 10.6666C11.25 11.7252 10.3919 12.5833 9.33334 12.5833V14.0833C11.2203 14.0833 12.75 12.5536 12.75 10.6666H11.25ZM9.33334 3.41663C10.3919 3.41663 11.25 4.27475 11.25 5.33329H12.75C12.75 3.44632 11.2203 1.91663 9.33334 1.91663V3.41663Z" />
</svg>
