<svg viewBox="0 0 24 25" fill="none" xmlns="http://www.w3.org/2000/svg">
	<path d="M12 13.75C11.3096 13.75 10.75 13.1904 10.75 12.5H9.25C9.25 14.0188 10.4812 15.25 12 15.25V13.75ZM10.75 12.5C10.75 11.8096 11.3096 11.25 12 11.25V9.75C10.4812 9.75 9.25 10.9812 9.25 12.5H10.75ZM12 11.25C12.6904 11.25 13.25 11.8096 13.25 12.5H14.75C14.75 10.9812 13.5188 9.75 12 9.75V11.25ZM13.25 12.5C13.25 13.1904 12.6904 13.75 12 13.75V15.25C13.5188 15.25 14.75 14.0188 14.75 12.5H13.25ZM20 13.75C19.3096 13.75 18.75 13.1904 18.75 12.5H17.25C17.25 14.0188 18.4812 15.25 20 15.25V13.75ZM18.75 12.5C18.75 11.8096 19.3096 11.25 20 11.25V9.75C18.4812 9.75 17.25 10.9812 17.25 12.5H18.75ZM20 11.25C20.6904 11.25 21.25 11.8096 21.25 12.5H22.75C22.75 10.9812 21.5188 9.75 20 9.75V11.25ZM21.25 12.5C21.25 13.1904 20.6904 13.75 20 13.75V15.25C21.5188 15.25 22.75 14.0188 22.75 12.5H21.25ZM4 13.75C3.30964 13.75 2.75 13.1904 2.75 12.5H1.25C1.25 14.0188 2.48122 15.25 4 15.25V13.75ZM2.75 12.5C2.75 11.8096 3.30964 11.25 4 11.25V9.75C2.48122 9.75 1.25 10.9812 1.25 12.5H2.75ZM4 11.25C4.69036 11.25 5.25 11.8096 5.25 12.5H6.75C6.75 10.9812 5.51878 9.75 4 9.75V11.25ZM5.25 12.5C5.25 13.1904 4.69036 13.75 4 13.75V15.25C5.51878 15.25 6.75 14.0188 6.75 12.5H5.25Z" fill="#131313" />
</svg>
