<svg viewBox="0 0 24 24" fill="none" xmlns="http://www.w3.org/2000/svg">
	<path fillRule="evenodd" clipRule="evenodd" d="M9.52498 8.81814C9.32972 8.62288 9.01314 8.62288 8.81788 8.81814C8.62261 9.0134 8.62261 9.32999 8.81788 9.52525L11.2927 12.0001L8.81788 14.475C8.62261 14.6703 8.62261 14.9868 8.81788 15.1821C9.01314 15.3774 9.32972 15.3774 9.52498 15.1821L11.9999 12.7072L14.4747 15.1821C14.67 15.3774 14.9866 15.3774 15.1818 15.1821C15.3771 14.9868 15.3771 14.6703 15.1818 14.475L12.707 12.0001L15.1818 9.52525C15.3771 9.32999 15.3771 9.0134 15.1818 8.81814C14.9866 8.62288 14.67 8.62288 14.4747 8.81814L11.9999 11.293L9.52498 8.81814Z" fill="#494C53" />
</svg>
