<svg fill="none" xmlns="http://www.w3.org/2000/svg">
	<path d="M9.25001 3.83331C9.25001 4.24753 9.5858 4.58331 10 4.58331C10.4142 4.58331 10.75 4.24753 10.75 3.83331H9.25001ZM5.25001 3.83331C5.25001 4.24753 5.5858 4.58331 6.00001 4.58331C6.41422 4.58331 6.75001 4.24753 6.75001 3.83331H5.25001ZM12.6667 8.49998V7.74998C12.2525 7.74998 11.9167 8.08577 11.9167 8.49998H12.6667ZM12.6667 13.8333H11.9167C11.9167 14.2475 12.2525 14.5833 12.6667 14.5833V13.8333ZM3.33334 8.49998H4.08334C4.08334 8.08577 3.74756 7.74998 3.33334 7.74998V8.49998ZM3.33334 13.8333V14.5833C3.74756 14.5833 4.08334 14.2475 4.08334 13.8333H3.33334ZM7.33334 6.41665C6.91913 6.41665 6.58334 6.75243 6.58334 7.16665C6.58334 7.58086 6.91913 7.91665 7.33334 7.91665V6.41665ZM8.66668 7.91665C9.08089 7.91665 9.41668 7.58086 9.41668 7.16665C9.41668 6.75243 9.08089 6.41665 8.66668 6.41665V7.91665ZM3.01089 10.4895C2.63692 10.6676 2.47811 11.1151 2.6562 11.4891C2.83428 11.8631 3.28182 12.0219 3.65579 11.8438L3.01089 10.4895ZM12.3442 11.8438C12.7182 12.0219 13.1657 11.8631 13.3438 11.4891C13.5219 11.1151 13.3631 10.6676 12.9891 10.4895L12.3442 11.8438ZM7.33334 4.58331H8.66668V3.08331H7.33334V4.58331ZM11.9167 7.83331V12.5H13.4167V7.83331H11.9167ZM10 14.4166H6.00001V15.9166H10V14.4166ZM4.08334 12.5V7.83331H2.58334V12.5H4.08334ZM6.00001 14.4166C4.94146 14.4166 4.08334 13.5585 4.08334 12.5H2.58334C2.58334 14.387 4.11304 15.9166 6.00001 15.9166V14.4166ZM11.9167 12.5C11.9167 13.5585 11.0586 14.4166 10 14.4166V15.9166C11.887 15.9166 13.4167 14.387 13.4167 12.5H11.9167ZM8.66668 4.58331C10.4616 4.58331 11.9167 6.03839 11.9167 7.83331H13.4167C13.4167 5.20996 11.29 3.08331 8.66668 3.08331V4.58331ZM7.33334 3.08331C4.70999 3.08331 2.58334 5.20996 2.58334 7.83331H4.08334C4.08334 6.03839 5.53842 4.58331 7.33334 4.58331V3.08331ZM7.33334 2.58331H8.66668V1.08331H7.33334V2.58331ZM9.25001 3.16665V3.83331H10.75V3.16665H9.25001ZM6.75001 3.83331V3.16665H5.25001V3.83331H6.75001ZM8.66668 2.58331C8.98884 2.58331 9.25001 2.84448 9.25001 3.16665H10.75C10.75 2.01605 9.81727 1.08331 8.66668 1.08331V2.58331ZM7.33334 1.08331C6.18275 1.08331 5.25001 2.01605 5.25001 3.16665H6.75001C6.75001 2.84448 7.01118 2.58331 7.33334 2.58331V1.08331ZM13.9167 10.5V12.5H15.4167V10.5H13.9167ZM13.3333 13.0833H12.6667V14.5833H13.3333V13.0833ZM13.4167 13.8333V8.49998H11.9167V13.8333H13.4167ZM13.9167 12.5C13.9167 12.8221 13.6555 13.0833 13.3333 13.0833V14.5833C14.4839 14.5833 15.4167 13.6506 15.4167 12.5H13.9167ZM12.6667 9.24998C13.357 9.24998 13.9167 9.80962 13.9167 10.5H15.4167C15.4167 8.9812 14.1855 7.74998 12.6667 7.74998V9.24998ZM2.58334 8.49998V13.8333H4.08334V8.49998H2.58334ZM3.33334 13.0833H2.66668V14.5833H3.33334V13.0833ZM2.08334 12.5V10.5H0.583344V12.5H2.08334ZM2.66668 13.0833C2.34451 13.0833 2.08334 12.8221 2.08334 12.5H0.583344C0.583344 13.6506 1.51608 14.5833 2.66668 14.5833V13.0833ZM3.33334 7.74998C1.81456 7.74998 0.583344 8.9812 0.583344 10.5H2.08334C2.08334 9.80962 2.64299 9.24998 3.33334 9.24998V7.74998ZM7.33334 7.91665H8.66668V6.41665H7.33334V7.91665ZM3.65579 11.8438C5.48796 10.9713 6.76701 10.5833 8.00001 10.5833C9.23301 10.5833 10.5121 10.9713 12.3442 11.8438L12.9891 10.4895C11.088 9.58418 9.56701 9.08331 8.00001 9.08331C6.43301 9.08331 4.91206 9.58418 3.01089 10.4895L3.65579 11.8438Z" fill="#494C53" />
</svg>
