<svg width="25" height="25" viewBox="0 0 25 25" fill="none" xmlns="http://www.w3.org/2000/svg">
	<path d="M19.5303 18.4697C19.2374 18.1768 18.7626 18.1768 18.4697 18.4697C18.1768 18.7626 18.1768 19.2374 18.4697 19.5303L19.5303 18.4697ZM21.9697 23.0303C22.2626 23.3232 22.7374 23.3232 23.0303 23.0303C23.3232 22.7374 23.3232 22.2626 23.0303 21.9697L21.9697 23.0303ZM22.25 12C22.25 6.33908 17.6609 1.75 12 1.75V3.25C16.8325 3.25 20.75 7.16751 20.75 12H22.25ZM12 1.75C6.33908 1.75 1.75 6.33908 1.75 12H3.25C3.25 7.16751 7.16751 3.25 12 3.25V1.75ZM1.75 12C1.75 17.6609 6.33908 22.25 12 22.25V20.75C7.16751 20.75 3.25 16.8325 3.25 12H1.75ZM12 22.25C17.6609 22.25 22.25 17.6609 22.25 12H20.75C20.75 16.8325 16.8325 20.75 12 20.75V22.25ZM18.4697 19.5303L21.9697 23.0303L23.0303 21.9697L19.5303 18.4697L18.4697 19.5303Z" fill="#494C53" />
</svg>
