<svg fill="none" xmlns="http://www.w3.org/2000/svg">
	<g clip-path="url(#clip0_86_126)">
		<path d="M9.33334 3.99998V4.74998H10.0833V3.99998H9.33334ZM6.66668 3.99998H5.91668V4.74998H6.66668V3.99998ZM12 8.74998C12.4142 8.74998 12.75 8.41419 12.75 7.99998C12.75 7.58577 12.4142 7.24998 12 7.24998V8.74998ZM10 7.24998C9.5858 7.24998 9.25001 7.58577 9.25001 7.99998C9.25001 8.41419 9.5858 8.74998 10 8.74998V7.24998ZM12 11.4166C12.4142 11.4166 12.75 11.0809 12.75 10.6666C12.75 10.2524 12.4142 9.91665 12 9.91665V11.4166ZM10 9.91665C9.5858 9.91665 9.25001 10.2524 9.25001 10.6666C9.25001 11.0809 9.5858 11.4166 10 11.4166V9.91665ZM3.33334 4.74998H12.6667V3.24998H3.33334V4.74998ZM13.9167 5.99998V12.6666H15.4167V5.99998H13.9167ZM12.6667 13.9166H3.33334V15.4166H12.6667V13.9166ZM2.08334 12.6666V5.99998H0.583344V12.6666H2.08334ZM3.33334 13.9166C2.64299 13.9166 2.08334 13.357 2.08334 12.6666H0.583344C0.583344 14.1854 1.81456 15.4166 3.33334 15.4166V13.9166ZM13.9167 12.6666C13.9167 13.357 13.357 13.9166 12.6667 13.9166V15.4166C14.1855 15.4166 15.4167 14.1854 15.4167 12.6666H13.9167ZM12.6667 4.74998C13.357 4.74998 13.9167 5.30962 13.9167 5.99998H15.4167C15.4167 4.4812 14.1855 3.24998 12.6667 3.24998V4.74998ZM3.33334 3.24998C1.81456 3.24998 0.583344 4.4812 0.583344 5.99998H2.08334C2.08334 5.30962 2.64299 4.74998 3.33334 4.74998V3.24998ZM7.33334 11.25H4.66668V12.75H7.33334V11.25ZM4.66668 11.25C4.7127 11.25 4.75001 11.2873 4.75001 11.3333H3.25001C3.25001 12.1157 3.88427 12.75 4.66668 12.75V11.25ZM7.25001 11.3333C7.25001 11.2873 7.28732 11.25 7.33334 11.25V12.75C8.11575 12.75 8.75001 12.1157 8.75001 11.3333H7.25001ZM6.00001 10.0833C6.69037 10.0833 7.25001 10.643 7.25001 11.3333H8.75001C8.75001 9.81453 7.51879 8.58331 6.00001 8.58331V10.0833ZM6.00001 8.58331C4.48123 8.58331 3.25001 9.81453 3.25001 11.3333H4.75001C4.75001 10.643 5.30965 10.0833 6.00001 10.0833V8.58331ZM8.58334 2.66665V3.99998H10.0833V2.66665H8.58334ZM9.33334 3.24998H6.66668V4.74998H9.33334V3.24998ZM7.41668 3.99998V2.66665H5.91668V3.99998H7.41668ZM8.00001 2.08331C8.32218 2.08331 8.58334 2.34448 8.58334 2.66665H10.0833C10.0833 1.51605 9.1506 0.583313 8.00001 0.583313V2.08331ZM8.00001 0.583313C6.84942 0.583313 5.91668 1.51605 5.91668 2.66665H7.41668C7.41668 2.34448 7.67784 2.08331 8.00001 2.08331V0.583313ZM12 7.24998L10 7.24998V8.74998L12 8.74998V7.24998ZM12 9.91665L10 9.91665V11.4166L12 11.4166V9.91665ZM6.58334 7.99998C6.58334 8.32215 6.32218 8.58331 6.00001 8.58331V10.0833C7.1506 10.0833 8.08334 9.15057 8.08334 7.99998H6.58334ZM6.00001 8.58331C5.67784 8.58331 5.41668 8.32215 5.41668 7.99998H3.91668C3.91668 9.15057 4.84942 10.0833 6.00001 10.0833V8.58331ZM5.41668 7.99998C5.41668 7.67781 5.67784 7.41665 6.00001 7.41665V5.91665C4.84942 5.91665 3.91668 6.84939 3.91668 7.99998H5.41668ZM6.00001 7.41665C6.32218 7.41665 6.58334 7.67781 6.58334 7.99998H8.08334C8.08334 6.84939 7.1506 5.91665 6.00001 5.91665V7.41665Z" fill="#494C53" />
	</g>
	<defs>
		<clipPath id="clip0_86_126">
			<rect width="16" height="16" fill="white" />
		</clipPath>
	</defs>
</svg>
