<svg fill="none" xmlns="http://www.w3.org/2000/svg">
	<path d="M9.91668 4.66667C9.91668 5.72521 9.05856 6.58333 8.00001 6.58333V8.08333C9.88698 8.08333 11.4167 6.55364 11.4167 4.66667H9.91668ZM8.00001 6.58333C6.94146 6.58333 6.08334 5.72521 6.08334 4.66667H4.58334C4.58334 6.55364 6.11304 8.08333 8.00001 8.08333V6.58333ZM6.08334 4.66667C6.08334 3.60812 6.94146 2.75 8.00001 2.75V1.25C6.11304 1.25 4.58334 2.77969 4.58334 4.66667H6.08334ZM8.00001 2.75C9.05856 2.75 9.91668 3.60812 9.91668 4.66667H11.4167C11.4167 2.77969 9.88698 1.25 8.00001 1.25V2.75ZM11.9167 11.6667C11.9167 11.8739 11.7292 12.2634 10.9644 12.6458C10.2445 13.0057 9.19749 13.25 8.00001 13.25V14.75C9.37986 14.75 10.6662 14.4719 11.6353 13.9874C12.5595 13.5253 13.4167 12.7481 13.4167 11.6667H11.9167ZM8.00001 13.25C6.80253 13.25 5.7555 13.0057 5.03559 12.6458C4.27082 12.2634 4.08334 11.8739 4.08334 11.6667H2.58334C2.58334 12.7481 3.44054 13.5253 4.36477 13.9874C5.33386 14.4719 6.62016 14.75 8.00001 14.75V13.25ZM4.08334 11.6667C4.08334 11.4595 4.27082 11.07 5.03559 10.6876C5.7555 10.3276 6.80253 10.0833 8.00001 10.0833V8.58333C6.62016 8.58333 5.33386 8.86139 4.36477 9.34593C3.44054 9.80805 2.58334 10.5852 2.58334 11.6667H4.08334ZM8.00001 10.0833C9.19749 10.0833 10.2445 10.3276 10.9644 10.6876C11.7292 11.07 11.9167 11.4595 11.9167 11.6667H13.4167C13.4167 10.5852 12.5595 9.80805 11.6353 9.34593C10.6662 8.86139 9.37986 8.58333 8.00001 8.58333V10.0833Z" fill="#494C53" />
</svg>
