<svg width="113" height="24" viewBox="0 0 113 24" fill="none" xmlns="http://www.w3.org/2000/svg">
<mask id="path-1-inside-1_106_1054" fill="white">
<path d="M24 12C24 18.6274 18.6274 24 12 24C5.37258 24 0 18.6274 0 12C0 5.37258 5.37258 0 12 0C18.6274 0 24 5.37258 24 12Z"/>
<path d="M24 12C24 18.6274 18.6274 24 12 24C5.37258 24 14 18.6274 14 12C14 5.37258 5.37258 0 12 0C18.6274 0 24 5.37258 24 12Z"/>
</mask>
<path d="M24 12C24 18.6274 18.6274 24 12 24C5.37258 24 0 18.6274 0 12C0 5.37258 5.37258 0 12 0C18.6274 0 24 5.37258 24 12Z" fill="#A1AAFF"/>
<path d="M24 12C24 18.6274 18.6274 24 12 24C5.37258 24 14 18.6274 14 12C14 5.37258 5.37258 0 12 0C18.6274 0 24 5.37258 24 12Z" fill="#3A4EFF"/>
<path d="M23.875 12C23.875 18.5584 18.5584 23.875 12 23.875V24.125C18.6965 24.125 24.125 18.6965 24.125 12H23.875ZM12 0.125C18.5584 0.125 23.875 5.44162 23.875 12H24.125C24.125 5.30355 18.6965 -0.125 12 -0.125V0.125ZM12 23.75C5.51065 23.75 0.25 18.4893 0.25 12H-0.25C-0.25 18.7655 5.23451 24.25 12 24.25V23.75ZM0.25 12C0.25 5.51065 5.51065 0.25 12 0.25V-0.25C5.23451 -0.25 -0.25 5.23451 -0.25 12H0.25ZM12 23.75C11.1819 23.75 10.63 23.6662 10.2762 23.5242C9.93505 23.3873 9.80239 23.2085 9.76157 23.0073C9.71544 22.7798 9.77397 22.4668 9.95072 22.0477C10.1248 21.635 10.3965 21.1575 10.728 20.6157C11.3848 19.5421 12.2679 18.2307 12.9799 16.7812C13.6937 15.3281 14.25 13.7103 14.25 12H13.75C13.75 13.6034 13.2278 15.1425 12.5311 16.5607C11.8327 17.9826 10.9731 19.2569 10.3015 20.3548C9.96868 20.8988 9.67977 21.4036 9.49002 21.8534C9.30296 22.297 9.19452 22.7269 9.27155 23.1067C9.35389 23.5127 9.63452 23.8054 10.09 23.9882C10.533 24.166 11.1612 24.25 12 24.25V23.75ZM14.25 12C14.25 10.2897 13.6937 8.67189 12.9799 7.21883C12.2679 5.76935 11.3848 4.45788 10.728 3.38426C10.3965 2.84246 10.1248 2.36498 9.95072 1.95226C9.77397 1.53318 9.71544 1.22017 9.76157 0.992713C9.80239 0.791462 9.93505 0.612728 10.2762 0.475814C10.63 0.333845 11.1819 0.25 12 0.25V-0.25C11.1612 -0.25 10.533 -0.165952 10.09 0.0117802C9.63452 0.194568 9.35389 0.487344 9.27155 0.893326C9.19452 1.2731 9.30296 1.70305 9.49002 2.14657C9.67977 2.59644 9.96868 3.10119 10.3015 3.64518C10.9731 4.74313 11.8327 6.01745 12.5311 7.43929C13.2278 8.85754 13.75 10.3966 13.75 12H14.25Z" fill="#3A4EFF" mask="url(#path-1-inside-1_106_1054)"/>
<path d="M38.76 4H41.2V19H38.76V17.75C38.44 18.1967 38.0367 18.56 37.55 18.84C37.0633 19.12 36.5 19.26 35.86 19.26C35.1333 19.26 34.4533 19.1233 33.82 18.85C33.1867 18.5767 32.6267 18.2 32.14 17.72C31.66 17.2333 31.2833 16.6733 31.01 16.04C30.7367 15.4067 30.6 14.7267 30.6 14C30.6 13.2733 30.7367 12.5933 31.01 11.96C31.2833 11.3267 31.66 10.77 32.14 10.29C32.6267 9.80333 33.1867 9.42333 33.82 9.15C34.4533 8.87667 35.1333 8.74 35.86 8.74C36.5 8.74 37.0633 8.88 37.55 9.16C38.0367 9.43333 38.44 9.79667 38.76 10.25V4ZM35.89 16.91C36.41 16.91 36.87 16.78 37.27 16.52C37.67 16.26 37.9833 15.91 38.21 15.47C38.4367 15.0233 38.55 14.5333 38.55 14C38.55 13.46 38.4367 12.97 38.21 12.53C37.9833 12.0833 37.6667 11.73 37.26 11.47C36.86 11.21 36.4033 11.08 35.89 11.08C35.3767 11.08 34.9067 11.2133 34.48 11.48C34.06 11.74 33.7233 12.09 33.47 12.53C33.2233 12.97 33.1 13.46 33.1 14C33.1 14.54 33.2267 15.03 33.48 15.47C33.7333 15.91 34.07 16.26 34.49 16.52C34.9167 16.78 35.3833 16.91 35.89 16.91ZM50.9861 9H53.4261V19H50.9861L50.8761 17.76C50.6028 18.2067 50.2394 18.57 49.7861 18.85C49.3394 19.1233 48.8094 19.26 48.1961 19.26C47.4561 19.26 46.7628 19.12 46.1161 18.84C45.4694 18.56 44.8994 18.1733 44.4061 17.68C43.9194 17.1867 43.5361 16.6167 43.2561 15.97C42.9828 15.3233 42.8461 14.63 42.8461 13.89C42.8461 13.1767 42.9761 12.5067 43.2361 11.88C43.5028 11.2533 43.8728 10.7033 44.3461 10.23C44.8194 9.75667 45.3661 9.38667 45.9861 9.12C46.6061 8.85333 47.2728 8.72 47.9861 8.72C48.6461 8.72 49.2361 8.86667 49.7561 9.16C50.2828 9.45333 50.7294 9.82667 51.0961 10.28L50.9861 9ZM48.1361 16.91C48.6561 16.91 49.1161 16.78 49.5161 16.52C49.9161 16.26 50.2294 15.91 50.4561 15.47C50.6828 15.0233 50.7961 14.5333 50.7961 14C50.7961 13.46 50.6828 12.97 50.4561 12.53C50.2294 12.0833 49.9128 11.73 49.5061 11.47C49.1061 11.21 48.6494 11.08 48.1361 11.08C47.6228 11.08 47.1528 11.2133 46.7261 11.48C46.3061 11.74 45.9694 12.09 45.7161 12.53C45.4694 12.97 45.3461 13.46 45.3461 14C45.3461 14.54 45.4728 15.03 45.7261 15.47C45.9794 15.91 46.3161 16.26 46.7361 16.52C47.1628 16.78 47.6294 16.91 48.1361 16.91ZM55.4288 19L55.4188 9H57.8588L57.8688 9.89C58.2088 9.53 58.6154 9.24667 59.0888 9.04C59.5621 8.82667 60.0721 8.72 60.6188 8.72C60.9854 8.72 61.3521 8.77333 61.7188 8.88L60.7588 11.34C60.5054 11.24 60.2521 11.19 59.9988 11.19C59.6054 11.19 59.2454 11.2867 58.9188 11.48C58.5988 11.6667 58.3421 11.9233 58.1488 12.25C57.9621 12.57 57.8688 12.9267 57.8688 13.32V19H55.4288ZM71.7706 19H68.9606L66.6806 15.07L65.2806 16.74V19H62.8406V4H65.2806V12.95L68.5906 9H71.7806L68.3506 13.09L71.7706 19ZM73.5438 19V4H75.9838V19H73.5438ZM78.3875 9H80.8275V19H78.3875V9ZM79.6275 7.71C79.2675 7.71 78.9642 7.59333 78.7175 7.36C78.4708 7.12 78.3475 6.82 78.3475 6.46C78.3475 6.10667 78.4708 5.81 78.7175 5.57C78.9642 5.33 79.2642 5.21 79.6175 5.21C79.9708 5.21 80.2675 5.33 80.5075 5.57C80.7542 5.81 80.8775 6.10667 80.8775 6.46C80.8775 6.82 80.7575 7.12 80.5175 7.36C80.2775 7.59333 79.9808 7.71 79.6275 7.71ZM90.4169 9H92.8569V19.19C92.8569 19.91 92.7102 20.5633 92.4169 21.15C92.1235 21.7433 91.7235 22.25 91.2169 22.67C90.7102 23.0967 90.1302 23.4233 89.4769 23.65C88.8235 23.8833 88.1369 24 87.4169 24C86.7169 24 86.0435 23.8567 85.3969 23.57C84.7502 23.2833 84.1769 22.89 83.6769 22.39C83.1835 21.8967 82.8069 21.3333 82.5469 20.7L84.7769 19.69C84.9102 20.0567 85.1102 20.3767 85.3769 20.65C85.6502 20.93 85.9635 21.1467 86.3169 21.3C86.6702 21.46 87.0369 21.54 87.4169 21.54C87.8035 21.54 88.1735 21.4867 88.5269 21.38C88.8869 21.2733 89.2102 21.1167 89.4969 20.91C89.7835 20.71 90.0069 20.4633 90.1669 20.17C90.3335 19.8833 90.4169 19.5567 90.4169 19.19V17.78C90.1035 18.22 89.7102 18.5767 89.2369 18.85C88.7635 19.1233 88.2169 19.26 87.5969 19.26C86.8769 19.26 86.2035 19.1233 85.5769 18.85C84.9502 18.5767 84.3969 18.2 83.9169 17.72C83.4435 17.2333 83.0702 16.6733 82.7969 16.04C82.5302 15.4067 82.3969 14.7267 82.3969 14C82.3969 13.2733 82.5302 12.5933 82.7969 11.96C83.0702 11.3267 83.4435 10.77 83.9169 10.29C84.3969 9.80333 84.9502 9.42333 85.5769 9.15C86.2035 8.87667 86.8769 8.74 87.5969 8.74C88.2169 8.74 88.7635 8.87667 89.2369 9.15C89.7102 9.41667 90.1035 9.77 90.4169 10.21V9ZM87.6269 16.91C88.1402 16.91 88.5935 16.78 88.9869 16.52C89.3869 16.2533 89.7002 15.9 89.9269 15.46C90.1535 15.0133 90.2669 14.5267 90.2669 14C90.2669 13.4667 90.1502 12.98 89.9169 12.54C89.6902 12.1 89.3769 11.7467 88.9769 11.48C88.5835 11.2133 88.1335 11.08 87.6269 11.08C87.1269 11.08 86.6702 11.2133 86.2569 11.48C85.8435 11.74 85.5135 12.09 85.2669 12.53C85.0202 12.97 84.8969 13.46 84.8969 14C84.8969 14.54 85.0202 15.03 85.2669 15.47C85.5135 15.91 85.8435 16.26 86.2569 16.52C86.6702 16.78 87.1269 16.91 87.6269 16.91ZM104.423 12.68V19H101.983V13.32C101.983 12.9267 101.886 12.57 101.693 12.25C101.499 11.9233 101.239 11.6667 100.913 11.48C100.593 11.2867 100.236 11.19 99.8425 11.19C99.4492 11.19 99.0892 11.2867 98.7625 11.48C98.4425 11.6667 98.1858 11.9233 97.9925 12.25C97.8058 12.57 97.7125 12.9267 97.7125 13.32V19H95.2725L95.2625 4H97.7025L97.7125 9.89C98.0525 9.53 98.4592 9.24667 98.9325 9.04C99.4058 8.82667 99.9158 8.72 100.463 8.72C101.189 8.72 101.853 8.9 102.453 9.26C103.053 9.61333 103.529 10.09 103.883 10.69C104.243 11.2833 104.423 11.9467 104.423 12.68ZM111.775 11.44H109.835V19H107.395V11.44H105.915V9H107.395V5.86H109.835V9H111.775V11.44Z" fill="#3A4EFF"/>
</svg>
