<svg width="25" height="24" viewBox="0 0 25 24" fill="none" xmlns="http://www.w3.org/2000/svg">
	<g clip-path="url(#clip0_1_126)">
		<path d="M8.04752 21.7507C17.1042 21.7507 22.0578 14.2473 22.0578 7.74046C22.0578 7.52734 22.0578 7.31518 22.0434 7.10398C23.007 6.40693 23.8389 5.54386 24.5 4.55518C23.6014 4.95358 22.648 5.21473 21.6718 5.3299C22.6998 4.71459 23.4692 3.74668 23.8366 2.60638C22.8701 3.17999 21.8126 3.58421 20.7099 3.80158C19.9675 3.01216 18.9856 2.48942 17.9162 2.31426C16.8468 2.13911 15.7494 2.32129 14.794 2.83263C13.8385 3.34397 13.0782 4.15595 12.6307 5.14293C12.1833 6.1299 12.0735 7.23684 12.3186 8.29246C10.3609 8.19426 8.44576 7.68549 6.69745 6.79918C4.94915 5.91288 3.40676 4.66884 2.1704 3.14782C1.54073 4.23181 1.34787 5.51505 1.6311 6.73624C1.91433 7.95744 2.65234 9.02477 3.69488 9.72094C2.91123 9.69798 2.14465 9.48657 1.46 9.10462V9.16702C1.46031 10.3039 1.85385 11.4056 2.57387 12.2854C3.29389 13.1652 4.29606 13.7688 5.4104 13.9939C4.68548 14.1916 3.92487 14.2205 3.18704 14.0784C3.50181 15.0567 4.11443 15.9122 4.93924 16.5253C5.76405 17.1384 6.75983 17.4785 7.78736 17.4979C6.76644 18.3004 5.59731 18.8937 4.34687 19.2439C3.09643 19.5941 1.78921 19.6943 0.5 19.5389C2.75183 20.9839 5.37192 21.7504 8.04752 21.7469" fill="#1DA1F2" />
	</g>
	<defs>
		<clipPath id="clip0_1_126">
			<rect width="24" height="24" fill="white" transform="translate(0.5)" />
		</clipPath>
	</defs>
</svg>
